HIERARCHY
ROOT Hips
{
	OFFSET 0.00000 0.00000 0.00000
	CHANNELS 6 Xposition Yposition Zposition Zrotation Yrotation Xrotation 
	JOINT LHipJoint
	{
		OFFSET 0 0 0
		CHANNELS 3 Zrotation Yrotation Xrotation
		JOINT LeftUpLeg
		{
			OFFSET 1.80322 -1.53100 0.99595
			CHANNELS 3 Zrotation Yrotation Xrotation
			JOINT LeftLeg
			{
				OFFSET 2.25177 -6.18669 0.00000
				CHANNELS 3 Zrotation Yrotation Xrotation
				JOINT LeftFoot
				{
					OFFSET 2.26601 -6.22582 0.00000
					CHANNELS 3 Zrotation Yrotation Xrotation
					JOINT LeftToeBase
					{
						OFFSET 0.23701 -0.65119 2.15848
						CHANNELS 3 Zrotation Yrotation Xrotation
						End Site
						{
							OFFSET 0.00000 -0.00000 1.12949
						}
					}
				}
			}
		}
	}
	JOINT RHipJoint
	{
		OFFSET 0 0 0
		CHANNELS 3 Zrotation Yrotation Xrotation
		JOINT RightUpLeg
		{
			OFFSET -1.93977 -1.53100 0.99595
			CHANNELS 3 Zrotation Yrotation Xrotation
			JOINT RightLeg
			{
				OFFSET -2.28036 -6.26523 0.00000
				CHANNELS 3 Zrotation Yrotation Xrotation
				JOINT RightFoot
				{
					OFFSET -2.25490 -6.19528 0.00000
					CHANNELS 3 Zrotation Yrotation Xrotation
					JOINT RightToeBase
					{
						OFFSET -0.28375 -0.77960 2.23137
						CHANNELS 3 Zrotation Yrotation Xrotation
						End Site
						{
							OFFSET -0.00000 -0.00000 1.17899
						}
					}
				}
			}
		}
	}
	JOINT LowerBack
	{
		OFFSET 0 0 0
		CHANNELS 3 Zrotation Yrotation Xrotation
		JOINT Spine
		{
			OFFSET -0.00088 2.12090 -0.02806
			CHANNELS 3 Zrotation Yrotation Xrotation
			JOINT Spine1
			{
				OFFSET -0.00286 2.09666 0.12974
				CHANNELS 3 Zrotation Yrotation Xrotation
				JOINT Neck
				{
					OFFSET 0 0 0
					CHANNELS 3 Zrotation Yrotation Xrotation
					JOINT Neck1
					{
						OFFSET 0.07328 1.83526 0.07290
						CHANNELS 3 Zrotation Yrotation Xrotation
						JOINT Head
						{
							OFFSET -0.06683 1.74974 -0.49542
							CHANNELS 3 Zrotation Yrotation Xrotation
							End Site
							{
								OFFSET -0.03398 1.85163 -0.17573
							}
						}
					}
				}
				JOINT LeftShoulder
				{
					OFFSET 0 0 0
					CHANNELS 3 Zrotation Yrotation Xrotation
					JOINT LeftArm
					{
						OFFSET 3.02113 1.18018 0.40602
						CHANNELS 3 Zrotation Yrotation Xrotation
						JOINT LeftForeArm
						{
							OFFSET 4.58538 -0.00000 -0.00000
							CHANNELS 3 Zrotation Yrotation Xrotation
							JOINT LeftHand
							{
								OFFSET 2.68935 -0.00000 -0.00000
								CHANNELS 3 Zrotation Yrotation Xrotation
								JOINT LeftFingerBase
								{
									OFFSET 0 0 0
									CHANNELS 3 Zrotation Yrotation Xrotation
									JOINT LeftHandIndex1
									{
										OFFSET 0.58506 -0.00000 -0.00000
										CHANNELS 3 Zrotation Yrotation Xrotation
										End Site
										{
											OFFSET 0.47169 -0.00000 -0.00000
										}
									}
								}
								JOINT LThumb
								{
									OFFSET 0 0 0
									CHANNELS 3 Zrotation Yrotation Xrotation
									End Site
									{
										OFFSET 0.47889 -0.00000 0.47889
									}
								}
							}
						}
					}
				}
				JOINT RightShoulder
				{
					OFFSET 0 0 0
					CHANNELS 3 Zrotation Yrotation Xrotation
					JOINT RightArm
					{
						OFFSET -2.95074 1.18843 0.31430
						CHANNELS 3 Zrotation Yrotation Xrotation
						JOINT RightForeArm
						{
							OFFSET -4.47450 -0.00000 -0.00000
							CHANNELS 3 Zrotation Yrotation Xrotation
							JOINT RightHand
							{
								OFFSET -2.93896 -0.00000 -0.00000
								CHANNELS 3 Zrotation Yrotation Xrotation
								JOINT RightFingerBase
								{
									OFFSET 0 0 0
									CHANNELS 3 Zrotation Yrotation Xrotation
									JOINT RightHandIndex1
									{
										OFFSET -0.40509 -0.00000 -0.00000
										CHANNELS 3 Zrotation Yrotation Xrotation
										End Site
										{
											OFFSET -0.32660 -0.00000 -0.00000
										}
									}
								}
								JOINT RThumb
								{
									OFFSET 0 0 0
									CHANNELS 3 Zrotation Yrotation Xrotation
									End Site
									{
										OFFSET -0.33158 -0.00000 0.33158
									}
								}
							}
						}
					}
				}
			}
		}
	}
}
MOTION
Frames: 14
Frame Time: .0083333
1.3926 15.7163 5.9581 0 0 0 0 0 0 -21 0 0 0 0 0 0 0 0 0 0 0 0 0 0 21 0 0 0 0 0 0 0 0 0 0 0 0 0 0 0 0 0 0 0 0 0 0 -16 0 0 21 0 0 11 0 0 0 -8 0 0 0 0 0 0 0 0 0 0 0 0 0 0 0 0 0 0 0 0 8 0 0 0 0 0 0 0 0 0 0 0 0 0 0 0 0 0
1.3926 15.7163 5.9581 -4.1190 -2.7367 9.9571 0.0000 0.0000 0.0000 -10.3810 -19.0634 -9.1639 1.8656 8.5803 24.4910 0.5469 13.4201 -24.5085 0.0043 -0.4223 -1.1603 0.0000 0.0000 0.0000 20.8443 14.2397 -7.5366 -1.2680 -7.1372 20.1226 0.8875 -21.7171 -23.3532 -0.0001 -0.0577 0.1584 4.3954 -0.8440 -5.9628 1.4925 -1.2085 -7.5082 -0.9311 -0.7859 -4.5165 11.3418 4.9189 -7.5817 -6.4233 7.1008 36.1036 -3.6149 3.8311 14.3089 0.0000 -0.0000 0.0000 -87.4705 13.1819 14.4252 19.9795 -30.6176 -5.5209 -0.0000 -0.0000 11.8026 8.7474 15.0315 2.2852 -7.1250 0.0000 -0.0000 -17.3123 44.4603 0.2380 0.0000 -0.0000 0.0000 84.8232 -8.2767 12.9238 -16.4025 26.0633 -3.8211 0.0000 0.0000 6.2939 -15.6418 -18.9504 5.1954 7.1250 -0.0000 -0.0000 12.3329 -49.2040 -1.2964
1.3936 15.7158 5.9612 -4.1273 -2.7663 9.9453 0.0000 0.0000 0.0000 -10.3973 -19.0811 -9.1110 1.8654 8.5800 24.4900 0.5489 13.4469 -24.5543 0.0037 -0.3930 -1.0798 0.0000 0.0000 0.0000 20.8429 14.1781 -7.5397 -1.2682 -7.1378 20.1243 0.8737 -21.6366 -23.3362 -0.0001 -0.0715 0.1963 4.4440 -0.8099 -5.9944 1.4780 -1.1675 -7.4825 -0.9737 -0.7671 -4.4713 11.3105 4.8931 -7.5028 -6.4129 7.0682 35.9866 -3.6081 3.8141 14.2297 0.0000 0.0000 0.0000 -87.5565 13.1161 14.4226 19.8806 -30.4982 -5.4706 -0.0000 -0.0000 11.9805 8.8852 14.8064 2.2878 -7.1250 0.0000 -0.0000 -17.1163 44.2592 0.3228 0.0000 0.0000 0.0000 84.8063 -7.7090 8.8829 -14.9405 24.0632 -3.2017 0.0000 0.0000 11.5432 -11.1544 -4.2912 0.8453 7.1250 -0.0000 -0.0000 12.6914 -34.1361 3.4545
1.3926 15.7164 5.9595 -4.0873 -2.6707 9.9488 0.0000 0.0000 0.0000 -10.4074 -19.0190 -9.1845 1.8634 8.5756 24.4764 0.5502 13.3328 -24.4424 0.0046 -0.4394 -1.2073 0.0000 0.0000 0.0000 20.8178 14.1989 -7.5300 -1.2699 -7.1426 20.1385 0.8815 -21.7226 -23.4250 -0.0002 -0.0903 0.2482 4.4103 -0.8319 -5.9513 1.4800 -1.1921 -7.5121 -0.9519 -0.7790 -4.5270 11.2431 4.9027 -7.5897 -6.3081 7.0563 36.0861 -3.5552 3.8126 14.2865 0.0000 -0.0000 0.0000 -87.6999 13.1494 14.3973 19.8923 -30.5124 -5.4766 -0.0000 -0.0000 11.8955 8.7441 14.9981 2.2794 -7.1250 0.0000 -0.0000 -17.3040 44.4278 0.2522 0.0000 -0.0000 0.0000 84.8056 -7.7979 9.2527 -15.0896 24.2707 -3.2627 0.0000 0.0000 11.2420 -11.1154 -4.3745 0.8586 7.1250 -0.0000 -0.0000 12.7366 -34.2172 3.4417
1.3923 15.7164 5.9601 -4.0720 -2.6646 9.9501 0.0000 0.0000 0.0000 -10.4235 -19.0305 -9.1797 1.8621 8.5728 24.4679 0.5460 13.3502 -24.4253 0.0050 -0.4564 -1.2541 0.0000 0.0000 0.0000 20.8024 14.2051 -7.5366 -1.2711 -7.1457 20.1478 0.8890 -21.7519 -23.4059 -0.0001 -0.0625 0.1717 4.4088 -0.8216 -5.9556 1.4753 -1.1792 -7.4975 -0.9561 -0.7720 -4.5085 11.2819 4.8978 -7.6238 -6.3719 7.0581 36.0572 -3.5871 3.8099 14.2855 0.0000 -0.0000 0.0000 -87.8469 13.1485 14.3454 19.8798 -30.4972 -5.4702 -0.0000 -0.0000 11.9368 8.7180 14.9552 2.2661 -7.1250 0.0000 -0.0000 -17.3130 44.3835 0.2719 0.0000 -0.0000 0.0000 84.8721 -7.7409 9.6946 -15.2327 24.4693 -3.3217 0.0000 0.0000 10.7694 -11.4261 -5.4979 1.1093 7.1250 -0.0000 -0.0000 12.6752 -35.3484 3.0675
1.3920 15.7164 5.9606 -4.0599 -2.6391 9.9503 0.0000 0.0000 0.0000 -10.4308 -19.0219 -9.1875 1.8605 8.5692 24.4568 0.5451 13.3297 -24.3955 0.0053 -0.4685 -1.2873 0.0000 0.0000 0.0000 20.7937 14.2093 -7.5356 -1.2726 -7.1497 20.1596 0.8907 -21.7738 -23.4322 -0.0001 -0.0672 0.1846 4.4151 -0.8143 -5.9507 1.4705 -1.1694 -7.4967 -0.9643 -0.7676 -4.5102 11.2806 4.8911 -7.6471 -6.3774 7.0479 36.0514 -3.5901 3.8043 14.2869 -0.0000 0.0000 0.0000 -87.9813 13.1558 14.3126 19.8567 -30.4693 -5.4585 -0.0000 -0.0000 11.9619 8.6708 14.9475 2.2526 -7.1250 0.0000 -0.0000 -17.3521 44.3708 0.2782 -0.0000 0.0000 0.0000 84.9103 -7.6808 9.5526 -15.1812 24.3979 -3.3004 0.0000 0.0000 11.0052 -11.2094 -4.4213 0.8753 7.1250 -0.0000 -0.0000 12.6684 -34.2679 3.4065
1.3916 15.7164 5.9610 -4.0485 -2.6126 9.9512 0.0000 0.0000 0.0000 -10.4370 -19.0180 -9.1972 1.8597 8.5675 24.4515 0.5451 13.3087 -24.3732 0.0054 -0.4750 -1.3053 0.0000 0.0000 0.0000 20.7862 14.2163 -7.5291 -1.2732 -7.1516 20.1652 0.8920 -21.7956 -23.4620 -0.0001 -0.0772 0.2120 4.4235 -0.8070 -5.9468 1.4650 -1.1596 -7.4977 -0.9744 -0.7633 -4.5134 11.2851 4.8841 -7.6665 -6.3892 7.0385 36.0458 -3.5967 3.7992 14.2881 0.0000 0.0000 0.0000 -88.1168 13.1749 14.2811 19.8350 -30.4430 -5.4475 -0.0000 -0.0000 11.9795 8.6077 14.9443 2.2355 -7.1250 0.0000 -0.0000 -17.4068 44.3607 0.2836 0.0000 0.0000 0.0000 84.9575 -7.6697 9.7430 -15.2347 24.4720 -3.3225 0.0000 0.0000 10.8117 -11.3130 -4.3476 0.8689 7.1250 -0.0000 -0.0000 12.5727 -34.1991 3.4012
1.3912 15.7164 5.9618 -4.0418 -2.5914 9.9520 0.0000 0.0000 0.0000 -10.4402 -19.0195 -9.2015 1.8592 8.5664 24.4480 0.5456 13.2939 -24.3610 0.0054 -0.4759 -1.3077 0.0000 0.0000 0.0000 20.7833 14.2232 -7.5197 -1.2737 -7.1528 20.1689 0.8920 -21.8112 -23.4931 -0.0002 -0.0907 0.2491 4.4371 -0.7984 -5.9427 1.4602 -1.1482 -7.5020 -0.9866 -0.7585 -4.5202 11.2945 4.8772 -7.6661 -6.4073 7.0325 36.0322 -3.6064 3.7957 14.2820 0.0000 -0.0000 0.0000 -88.2522 13.2078 14.2470 19.8098 -30.4126 -5.4348 -0.0000 -0.0000 12.0052 8.5405 14.9264 2.2152 -7.1250 0.0000 -0.0000 -17.4602 44.3359 0.2956 0.0000 -0.0000 0.0000 85.0068 -7.6687 9.9195 -15.2794 24.5338 -3.3411 0.0000 0.0000 10.6327 -11.4247 -4.2557 0.8592 7.1250 -0.0000 -0.0000 12.4677 -34.1125 3.3984
1.3908 15.7164 5.9627 -4.0367 -2.5702 9.9543 0.0000 0.0000 0.0000 -10.4409 -19.0205 -9.2069 1.8586 8.5651 24.4440 0.5465 13.2771 -24.3510 0.0054 -0.4727 -1.2988 0.0000 0.0000 0.0000 20.7824 14.2324 -7.5107 -1.2743 -7.1543 20.1734 0.8917 -21.8270 -23.5269 -0.0003 -0.1060 0.2912 4.4521 -0.7902 -5.9372 1.4561 -1.1371 -7.5107 -0.9988 -0.7541 -4.5326 11.2955 4.8701 -7.6557 -6.4146 7.0253 36.0180 -3.6105 3.7920 14.2724 0.0000 -0.0000 0.0000 -88.3888 13.2543 14.2053 19.7846 -30.3819 -5.4220 -0.0000 -0.0000 12.0380 8.4591 14.9057 2.1908 -7.1250 0.0000 -0.0000 -17.5252 44.3070 0.3097 0.0000 -0.0000 0.0000 85.0549 -7.6831 10.0809 -15.3231 24.5942 -3.3593 0.0000 0.0000 10.4927 -11.4966 -4.1780 0.8489 7.1250 -0.0000 -0.0000 12.3972 -34.0381 3.4013
1.3904 15.7164 5.9636 -4.0297 -2.5481 9.9568 0.0000 0.0000 0.0000 -10.4436 -19.0206 -9.2125 1.8579 8.5637 24.4397 0.5475 13.2593 -24.3405 0.0053 -0.4710 -1.2942 0.0000 0.0000 0.0000 20.7803 14.2437 -7.5002 -1.2749 -7.1561 20.1787 0.8915 -21.8450 -23.5647 -0.0004 -0.1210 0.3326 4.4639 -0.7843 -5.9288 1.4526 -1.1286 -7.5243 -1.0085 -0.7511 -4.5517 11.2925 4.8637 -7.6354 -6.4161 7.0190 36.0033 -3.6115 3.7892 14.2600 -0.0000 0.0000 0.0000 -88.5291 13.3173 14.1504 19.7607 -30.3530 -5.4099 -0.0000 -0.0000 12.0784 8.3599 14.8828 2.1615 -7.1250 0.0000 -0.0000 -17.6052 44.2739 0.3261 -0.0000 0.0000 0.0000 85.1011 -7.7099 10.2196 -15.3669 24.6547 -3.3775 0.0000 0.0000 10.4166 -11.4991 -4.1577 0.8450 7.1250 -0.0000 -0.0000 12.3920 -34.0180 3.4060
1.3900 15.7165 5.9647 -4.0205 -2.5273 9.9614 0.0000 0.0000 0.0000 -10.4484 -19.0202 -9.2191 1.8570 8.5617 24.4336 0.5479 13.2441 -24.3275 0.0054 -0.4737 -1.3017 0.0000 0.0000 0.0000 20.7756 14.2568 -7.4939 -1.2759 -7.1587 20.1865 0.8926 -21.8680 -23.5988 -0.0004 -0.1306 0.3588 4.4714 -0.7794 -5.9206 1.4499 -1.1211 -7.5407 -1.0149 -0.7483 -4.5737 11.2844 4.8568 -7.6180 -6.4140 7.0119 35.9961 -3.6103 3.7858 14.2512 -0.0000 0.0000 0.0000 -88.6715 13.3894 14.0851 19.7352 -30.3220 -5.3970 -0.0000 -0.0000 12.1261 8.2529 14.8601 2.1303 -7.1250 0.0000 -0.0000 -17.6919 44.2401 0.3430 -0.0000 0.0000 0.0000 85.1464 -7.7440 10.3388 -15.4027 24.7040 -3.3924 0.0000 0.0000 10.3576 -11.4937 -4.1321 0.8394 7.1250 -0.0000 -0.0000 12.3922 -33.9923 3.4140
1.3896 15.7165 5.9658 -4.0114 -2.5081 9.9673 0.0000 0.0000 0.0000 -10.4532 -19.0186 -9.2267 1.8561 8.5597 24.4274 0.5477 13.2325 -24.3130 0.0056 -0.4824 -1.3254 0.0000 0.0000 0.0000 20.7710 14.2749 -7.4880 -1.2770 -7.1617 20.1953 0.8945 -21.8956 -23.6333 -0.0005 -0.1370 0.3765 4.4784 -0.7748 -5.9144 1.4476 -1.1143 -7.5572 -1.0206 -0.7459 -4.5946 11.2655 4.8487 -7.6073 -6.4021 7.0013 35.9954 -3.6037 3.7805 14.2455 -0.0000 0.0000 0.0000 -88.8139 13.4648 14.0091 19.7060 -30.2865 -5.3823 -0.0000 -0.0000 12.1808 8.1326 14.8350 2.0954 -7.1250 0.0000 -0.0000 -17.7895 44.2026 0.3621 -0.0000 0.0000 0.0000 85.1921 -7.7822 10.4390 -15.4310 24.7430 -3.4043 0.0000 0.0000 10.3127 -11.4860 -4.0949 0.8313 7.1250 -0.0000 -0.0000 12.3925 -33.9549 3.4255
1.3892 15.7165 5.9672 -4.0005 -2.4879 9.9745 0.0000 0.0000 0.0000 -10.4607 -19.0185 -9.2331 1.8552 8.5577 24.4211 0.5473 13.2217 -24.2983 0.0058 -0.4927 -1.3538 0.0000 0.0000 0.0000 20.7641 14.2901 -7.4839 -1.2782 -7.1649 20.2048 0.8961 -21.9214 -23.6683 -0.0005 -0.1425 0.3914 4.4850 -0.7702 -5.9140 1.4442 -1.1078 -7.5717 -1.0275 -0.7435 -4.6103 11.2441 4.8389 -7.6077 -6.3895 6.9876 36.0032 -3.5970 3.7734 14.2458 -0.0000 -0.0000 0.0000 -88.9520 13.5388 13.9335 19.6702 -30.2429 -5.3642 -0.0000 -0.0000 12.2326 8.0099 14.8166 2.0609 -7.1250 0.0000 -0.0000 -17.8914 44.1715 0.3785 -0.0000 -0.0000 0.0000 85.2385 -7.8215 10.5107 -15.4553 24.7765 -3.4145 0.0000 0.0000 10.3102 -11.4353 -4.1007 0.8287 7.1250 -0.0000 -0.0000 12.4342 -33.9586 3.4364
1.3888 15.7164 5.9687 -3.9929 -2.4695 9.9826 0.0000 0.0000 0.0000 -10.4643 -19.0186 -9.2405 1.8545 8.5563 24.4168 0.5471 13.2123 -24.2861 0.0061 -0.5035 -1.3835 0.0000 0.0000 0.0000 20.7605 14.3082 -7.4788 -1.2791 -7.1674 20.2122 0.8976 -21.9471 -23.7041 -0.0005 -0.1509 0.4145 4.4951 -0.7638 -5.9178 1.4407 -1.0995 -7.5833 -1.0364 -0.7403 -4.6204 11.2182 4.8293 -7.6128 -6.3720 6.9730 36.0127 -3.5875 3.7659 14.2473 0.0000 -0.0000 0.0000 -89.0847 13.6089 13.8603 19.6296 -30.1935 -5.3438 -0.0000 -0.0000 12.2790 7.8834 14.8122 2.0274 -7.1250 0.0000 -0.0000 -18.0011 44.1530 0.3895 0.0000 -0.0000 0.0000 85.2868 -7.8610 10.5671 -15.4720 24.7995 -3.4215 0.0000 0.0000 10.3012 -11.4010 -4.1008 0.8262 7.1250 -0.0000 -0.0000 12.4619 -33.9572 3.4448
